<?xml version="1.0" encoding="UTF-8"?>
<svg id="Capa_1" data-name="Capa 1" xmlns="http://www.w3.org/2000/svg" viewBox="0 0 127 127.16">
  <defs>
    <style>
      .cls-1 {
        stroke-width: 0px;
      }
    </style>
  </defs>
  <path class="cls-1" d="M63.65,0c35.16.04,63.39,28.49,63.35,63.84-.03,35.05-28.51,63.35-63.71,63.31C28.23,127.12-.08,98.53,0,63.22.08,28.29,28.6-.04,63.65,0ZM43.68,33.04c-.55-.5-.94-.89-1.37-1.23-4.43-3.48-8.78-7.06-13.35-10.35-1.58-1.14-3.62-1.78-5.56-2.22-1.84-.42-3.03.52-3.18,2.41-.14,1.74-.16,3.62.34,5.26,1.46,4.8,3.17,9.52,4.89,14.24.39,1.06.33,1.58-.65,2.23-1.89,1.24-3.72,2.6-5.48,4.02-4.31,3.48-8.34,7.25-11.12,12.13-3.06,5.36-2.56,10.37,1.49,15.21.41-.44.83-.86,1.23-1.31,4.37-4.92,9.04-9.51,14.43-13.32,4.34-3.06,8.96-5.53,14.27-6.5,6.73-1.24,10.8.88,13.56,7.15.52,1.17.96,2.39,1.32,3.62,2.01,6.9,2.43,13.98,2.44,21.11,0,.31-.17.63-.3,1.08-4.27-3.31-8.77-4.09-13.56-1.79-5.01,2.41-8.49,6.48-11.81,10.91.55.41.95.8,1.42,1.04,5.56,2.83,11.05,5.81,16.73,8.38,2.87,1.3,6.07,1.87,9.15,2.67.52.14,1.17-.23,1.77-.37-.29-.49-.49-1.06-.88-1.45-1.08-1.08-2.49-1.93-3.29-3.17-.95-1.48-1.95-3.27-1.97-4.94-.04-3.8,1.75-6.97,4.78-9.32,2.97-2.3,6.34-2.2,9.3.15,2.08,1.66,3.39,3.84,4.2,6.35.99,3.07.51,5.82-1.84,8.12-1.09,1.07-2.31,2.01-3.41,3.08-.3.29-.36.82-.54,1.24.42.14.84.36,1.27.41.35.04.72-.12,1.08-.2,9.54-2.05,18.16-6.22,26.25-11.57.14-.09.22-.27.41-.51-2.9-3.91-6.05-7.56-10.3-10.07-4.78-2.83-9.52-2.84-14.14.43-.27.19-.58.34-1.03.6-.06-.79-.19-1.4-.14-1.99.42-5.19.54-10.43,1.43-15.53.63-3.62,2.03-7.18,3.6-10.53,1.7-3.61,4.89-5.27,9-5.19,5.08.09,9.57,1.89,13.85,4.39,6.69,3.91,12.25,9.17,17.4,14.88.64.71,1.29,1.42,1.95,2.15,3.93-4.75,4.49-9.64,1.73-14.8-2.35-4.4-5.8-7.9-9.57-11.06-2.66-2.24-5.49-4.29-8.34-6.5.2-.5.45-1.05.65-1.61,1.54-4.39,3.17-8.75,4.57-13.18.5-1.6.63-3.39.61-5.08-.04-2.75-1.65-3.98-4.28-3.16-1.9.59-3.85,1.42-5.44,2.59-4.18,3.09-8.19,6.42-12.26,9.66-.55.44-1.06.92-1.65,1.43-3-3.58-6.89-5.13-11.13-5.38-5.49-.32-11.03-.38-16.52-.12-4.55.22-8.8,1.66-12.01,5.5ZM47.82,68.92c-.02-.23-.03-.78-.11-1.32-.63-3.88-3.47-6.72-6.82-6.82-3.4-.1-6.26,2.47-7.13,6.42-.04.18-.1.35-.13.53-.72,4.3,2.03,8.89,5.76,9.62,4.42.86,8.39-2.95,8.43-8.44ZM93.48,68.54c-.01-1.74-.74-3.96-2.51-5.76-2.53-2.57-6.24-2.69-8.94-.3-3.85,3.42-3.74,10.42.36,13.51,1.09.82,2.66,1.35,4.04,1.4,3.87.15,6.98-3.58,7.05-8.85ZM69.61,98.2c.01-3.63-3.03-7.44-6-7.51-3.01-.07-6.22,3.82-6.19,7.51.02,3.13,2.68,5.63,6.02,5.67,3.44.04,6.17-2.47,6.18-5.67Z"/>
  <path class="cls-1" d="M39.52,35.32c-3.23,1.88-6.27,3.65-9.48,5.53-1.83-3.64-3.81-7.42-4.52-11.68-.38-2.31.75-3.18,2.9-2.22,4.31,1.94,7.64,5.19,11.11,8.37Z"/>
  <path class="cls-1" d="M87.18,35.11c3.63-2.67,7.06-5.32,10.64-7.74.81-.55,2.15-.32,3.24-.45.1,1.11.56,2.34.24,3.31-1.22,3.64-2.69,7.2-4.05,10.76-3.36-1.96-6.44-3.77-10.06-5.88Z"/>
</svg>